<svg width="1280" height="832" viewBox="0 0 1280 832" fill="none" xmlns="http://www.w3.org/2000/svg">
<g clip-path="url(#clip0_63_50)">
<rect width="1280" height="832" fill="#191724"/>
<path d="M760 61H1111.14V297.333C1111.14 360.737 1059.74 412.137 996.333 412.137H760V61Z" fill="#F2517F"/>
<path d="M760 770H1111.14V533.667C1111.14 470.263 1059.74 418.863 996.333 418.863H760V770Z" fill="#96C0B7"/>
<path d="M1468.1 61L1468.1 412.137L1231.77 412.137C1168.37 412.137 1116.97 360.737 1116.97 297.333L1116.97 61L1468.1 61Z" fill="#602333"/>
<path d="M1468.1 770L1468.1 418.863L1231.77 418.863C1168.37 418.863 1116.97 470.263 1116.97 533.667L1116.97 770L1468.1 770Z" fill="#C6A000"/>
<path fill-rule="evenodd" clip-rule="evenodd" d="M760 392.405C760.075 392.405 760.149 392.405 760.224 392.405C846.29 392.405 916.061 322.634 916.061 236.568C916.061 150.502 846.29 80.7318 760.224 80.7318C760.149 80.7318 760.075 80.7319 760 80.732L760 392.405Z" fill="#602333"/>
<path fill-rule="evenodd" clip-rule="evenodd" d="M760 750.268C760.075 750.268 760.149 750.268 760.224 750.268C846.29 750.268 916.061 680.498 916.061 594.432C916.061 508.365 846.29 438.595 760.224 438.595C760.149 438.595 760.075 438.595 760 438.595L760 750.268Z" fill="#F2517F"/>
</g>
<defs>
<clipPath id="clip0_63_50">
<rect width="1280" height="832" fill="white"/>
</clipPath>
</defs>
</svg>
